<svg version="1.1" xmlns="http://www.w3.org/2000/svg" x="0" y="0" viewBox="0 0 131 44.7" style="enable-background:new 0 0 131 44.7" xml:space="preserve"><style>.st0{fill:#005aff}.st1{fill:#629cf9}</style><path class="st0" d="M11.3 44.1H0V12.2h11.6v11.1l-.4 4.8h.4l2.1-8.6h11.7l-5 11.6 5.5 13H13.6l-2-9.6h-.4v4l.1 5.6zM38.3 44.1H27V12.2h11.6v11.1l-.3 4.8h.3l2.1-8.6h11.7l-5 11.6 5.5 13H40.6l-2-9.6h-.3v9.6z"/><path class="st1" d="M76.3 44.1h-10c-.1-.5-.2-1-.3-1.6-.1-.5-.1-1.2-.1-2h-.3c0 .6-.2 1.2-.6 1.8s-1 1.2-1.8 1.7-2 .7-3.4.7c-1.9 0-3.5-.3-4.6-1s-1.9-1.5-2.4-2.6-.7-2.2-.7-3.4v-1.9c0-2.5.8-4.4 2.3-5.6 1.6-1.2 4.2-1.8 8-1.8H64c.5 0 1.1.1 1.7.1.1-.5 0-.8-.2-1s-.4-.3-.7-.4c-.5 0-1-.1-1.4-.1-.5 0-.9-.1-1.3-.1-2.1 0-3.8.2-5.3.8-1.4.5-2.5 1-3.3 1.5l-.7-8.6c2.3-.7 4.5-1.2 6.5-1.5s3.8-.5 5.5-.5c3.6 0 6.4.7 8.4 2.2s3 3.6 3 6.4v12c-.1 1.8 0 3.3.1 4.9zM65 36.6v-2.5c0-.1-.1-.3-.1-.6-.1-.3-.4-.5-.9-.5s-.8.2-.9.5c-.1.3-.1.5-.1.6v2.5c0 .1 0 .3.1.6s.4.5.9.5.8-.2.9-.5.1-.5.1-.6zM91 37l.6 7c-.8.2-1.8.3-2.9.4-1.1.1-2.2.1-3.2.1-1.6 0-3-.3-4.2-.8s-2.2-1.5-2.8-3c-.7-1.5-1-3.6-1-6.3V12.2h11.3v23.1c0 .7.2 1.2.6 1.5s1 .3 1.6.2z"/><path class="st0" d="m105.5 37 .6 7c-.8.2-1.8.3-2.9.4-1.1.1-2.2.1-3.2.1-1.6 0-3-.3-4.2-.8s-2.2-1.5-2.8-3c-.7-1.5-1-3.6-1-6.3V12.2h11.3v23.1c0 .7.2 1.2.6 1.5s.9.3 1.6.2zM131 44.1h-10c-.1-.5-.2-1-.2-1.6-.1-.5-.1-1.2-.1-2h-.3c0 .6-.2 1.2-.6 1.8s-1 1.2-1.8 1.7-2 .7-3.4.7c-1.9 0-3.5-.3-4.6-1s-1.9-1.5-2.4-2.6c-.5-1-.7-2.2-.7-3.4v-1.9c0-2.5.8-4.4 2.3-5.6 1.6-1.2 4.2-1.8 8-1.8h1.6c.5 0 1.1.1 1.7.1.1-.5 0-.8-.2-1s-.4-.3-.7-.4c-.5 0-1-.1-1.4-.1-.5 0-.9-.1-1.3-.1-2.1 0-3.8.2-5.3.8s-2.5 1-3.3 1.5l-.7-8.6c2.3-.7 4.4-1.2 6.4-1.5s3.8-.5 5.5-.5c3.6 0 6.4.7 8.4 2.2 2 1.5 3 3.6 3 6.4v12c-.1 1.8 0 3.3.1 4.9zm-11.3-7.5v-2.5c0-.1-.1-.3-.1-.6-.1-.3-.4-.5-.9-.5s-.8.2-.9.5-.1.5-.1.6v2.5c0 .1.1.3.1.6s.4.5.9.5.8-.2.9-.5.1-.5.1-.6z"/><circle class="st1" cx="83.2" cy="5" r="5"/></svg>
