<svg xmlns="http://www.w3.org/2000/svg" viewBox="0 0 131.02 44.72"><defs><style>.cls-1{fill:#fff}.cls-2{fill:#005aff}</style></defs><path class="cls-2" d="M11.29 44.08H0V12.16h11.64v11.12l-.35 4.8h.35l2.08-8.62H25.4l-5.02 11.63 5.49 12.98H13.6l-2-9.57h-.35v4.01l.04 5.56zM38.34 44.08H27.05V12.16h11.64v11.12l-.35 4.8h.35l2.08-8.62h11.68l-5.02 11.63 5.49 12.98H40.65l-2-9.57h-.35v4.01l.04 5.56z"/><path class="cls-1" d="M76.33 44.08H66.29c-.11-.5-.19-1.03-.26-1.57-.06-.54-.1-1.2-.1-1.97h-.35c0 .56-.19 1.16-.57 1.81-.38.65-.99 1.21-1.82 1.67s-1.96.7-3.37.7c-1.93 0-3.46-.33-4.59-.99-1.12-.66-1.92-1.51-2.39-2.56s-.71-2.18-.71-3.4v-1.91c0-2.54.78-4.39 2.35-5.56 1.57-1.16 4.22-1.75 7.96-1.75.52 0 1.05.01 1.59.04s1.1.07 1.71.12c.05-.45-.02-.78-.22-.99s-.44-.33-.73-.36c-.5-.05-.97-.1-1.43-.14-.46-.04-.91-.06-1.35-.06-2.09 0-3.85.25-5.27.75-1.42.5-2.54.99-3.35 1.47l-.71-8.58c2.3-.69 4.45-1.19 6.45-1.51 2-.32 3.84-.48 5.51-.48 3.61 0 6.4.73 8.37 2.2s2.96 3.61 2.96 6.41v12.03c.08 1.56.2 3.1.35 4.61zm-11.37-7.46v-2.5c0-.11-.05-.31-.14-.62-.09-.3-.4-.46-.92-.46s-.83.15-.92.46c-.09.3-.14.51-.14.62v2.5c0 .08.05.28.14.6.09.32.4.48.92.48s.83-.16.92-.48c.09-.32.14-.52.14-.6zM91.03 36.97l.63 6.95c-.81.19-1.77.32-2.88.42-1.11.09-2.16.14-3.16.14-1.62 0-3.04-.27-4.25-.81s-2.16-1.54-2.82-3c-.67-1.46-1-3.56-1-6.31v-22.2h11.29v23.15c0 .74.2 1.23.61 1.47s.93.3 1.59.2z"/><path class="cls-2" d="m105.46 36.97.63 6.95c-.81.19-1.77.32-2.88.42-1.11.09-2.16.14-3.16.14-1.62 0-3.04-.27-4.25-.81s-2.16-1.54-2.82-3c-.67-1.46-1-3.56-1-6.31v-22.2h11.29v23.15c0 .74.2 1.23.61 1.47s.93.3 1.59.2zM131.02 44.08h-10.04c-.1-.5-.19-1.03-.25-1.57-.07-.54-.1-1.2-.1-1.97h-.35c0 .56-.19 1.16-.57 1.81-.38.65-.99 1.21-1.82 1.67-.84.46-1.96.7-3.37.7-1.93 0-3.46-.33-4.59-.99s-1.92-1.51-2.39-2.56a8.218 8.218 0 0 1-.71-3.4v-1.91c0-2.54.78-4.39 2.35-5.56 1.57-1.16 4.22-1.75 7.96-1.75.52 0 1.05.01 1.59.04s1.1.07 1.71.12c.05-.45-.02-.78-.22-.99-.2-.21-.44-.33-.72-.36-.5-.05-.97-.1-1.43-.14-.46-.04-.91-.06-1.35-.06-2.09 0-3.85.25-5.27.75-1.42.5-2.54.99-3.35 1.47l-.71-8.58c2.3-.69 4.45-1.19 6.45-1.51 2-.32 3.83-.48 5.51-.48 3.61 0 6.4.73 8.37 2.2 1.97 1.47 2.96 3.61 2.96 6.41v12.03c.08 1.56.2 3.1.35 4.61zm-11.37-7.46v-2.5c0-.11-.05-.31-.14-.62-.09-.3-.4-.46-.92-.46s-.83.15-.92.46c-.09.3-.14.51-.14.62v2.5c0 .08.05.28.14.6.09.32.4.48.92.48s.83-.16.92-.48c.09-.32.14-.52.14-.6z"/><g><ellipse class="cls-1" cx="83.2" cy="5.03" rx="5.02" ry="5.03"/></g></svg>
